<svg width="14.000000" height="16.000000" viewBox="0 0 14 16" fill="none" xmlns="http://www.w3.org/2000/svg" xmlns:xlink="http://www.w3.org/1999/xlink">
	<defs>
		<clipPath id="clip12_221">
			<rect id="fa6-brands:instagram" width="14.000000" height="16.000000" fill="white" fill-opacity="0"/>
		</clipPath>
	</defs>
	<rect id="fa6-brands:instagram" width="14.000000" height="16.000000" fill="#FFFFFF" fill-opacity="0"/>
	<g clip-path="url(#clip12_221)">
		<path id="Vector" d="M7 4.4C5.01 4.4 3.41 6 3.41 7.99C3.41 9.98 5.01 11.58 7 11.58C8.99 11.58 10.59 9.98 10.59 7.99C10.59 6 8.99 4.4 7 4.4ZM7 10.33C5.71 10.33 4.66 9.28 4.66 7.99C4.66 6.7 5.71 5.66 7 5.66C8.29 5.66 9.33 6.7 9.33 7.99C9.33 9.28 8.28 10.33 7 10.33ZM11.57 4.25C11.57 4.72 11.2 5.09 10.74 5.09C10.27 5.09 9.9 4.72 9.9 4.25C9.9 3.79 10.27 3.42 10.74 3.42C11.2 3.42 11.57 3.79 11.57 4.25ZM13.95 5.1C13.9 3.98 13.64 2.99 12.82 2.17C12 1.35 11.01 1.09 9.89 1.04C8.73 0.97 5.26 0.97 4.11 1.04C2.99 1.09 2 1.35 1.17 2.17C0.35 2.99 0.1 3.98 0.04 5.1C-0.02 6.26 -0.02 9.72 0.04 10.88C0.1 12 0.35 13 1.17 13.81C2 14.63 2.99 14.89 4.11 14.95C5.26 15.01 8.73 15.01 9.89 14.95C11.01 14.89 12 14.64 12.82 13.81C13.64 13 13.9 12 13.95 10.88C14.02 9.72 14.02 6.26 13.95 5.1ZM12.46 12.12C12.21 12.73 11.74 13.2 11.13 13.45C10.2 13.82 8.02 13.73 7 13.73C5.98 13.73 3.79 13.81 2.87 13.45C2.26 13.21 1.79 12.74 1.54 12.12C1.17 11.2 1.26 9.01 1.26 7.99C1.26 6.97 1.18 4.78 1.54 3.86C1.78 3.25 2.25 2.78 2.87 2.53C3.79 2.17 5.98 2.25 7 2.25C8.02 2.25 10.21 2.17 11.13 2.53C11.74 2.78 12.21 3.25 12.46 3.86C12.82 4.79 12.74 6.97 12.74 7.99C12.74 9.01 12.82 11.2 12.46 12.12Z" fill="#FFFFFF" fill-opacity="1.000000" fill-rule="nonzero"/>
	</g>
</svg>
